<mxfile host="Electron" modified="2023-12-20T17:09:51.120Z" agent="Mozilla/5.0 (Windows NT 10.0; Win64; x64) AppleWebKit/537.36 (KHTML, like Gecko) draw.io/22.1.2 Chrome/114.0.5735.289 Electron/25.9.4 Safari/537.36" etag="_8zM_uiWB5uFFY9jRiUB" version="22.1.2" type="device">
  <diagram name="Page-1" id="0783ab3e-0a74-02c8-0abd-f7b4e66b4bec">
    <mxGraphModel dx="1884" dy="1116" grid="1" gridSize="10" guides="1" tooltips="1" connect="1" arrows="1" fold="1" page="1" pageScale="1" pageWidth="850" pageHeight="1100" background="none" math="0" shadow="0">
      <root>
        <mxCell id="0" />
        <mxCell id="1" parent="0" />
        <mxCell id="1c1d494c118603dd-1" value="&lt;font style=&quot;font-size: 14px;&quot;&gt;Test Request Handling&lt;/font&gt;" style="swimlane;html=1;childLayout=stackLayout;startSize=20;rounded=0;shadow=0;comic=0;labelBackgroundColor=none;strokeWidth=1;fontFamily=Verdana;fontSize=12;align=center;swimlaneLine=1;dashed=1;" parent="1" vertex="1">
          <mxGeometry x="10" y="40" width="1360" height="1535" as="geometry" />
        </mxCell>
        <mxCell id="1c1d494c118603dd-2" value="Laboratory Technician" style="swimlane;html=1;startSize=20;align=left;" parent="1c1d494c118603dd-1" vertex="1">
          <mxGeometry y="20" width="835" height="1515" as="geometry" />
        </mxCell>
        <mxCell id="s-cvQ4wJ5pqI2j_j3qfa-5" style="edgeStyle=orthogonalEdgeStyle;rounded=0;orthogonalLoop=1;jettySize=auto;html=1;entryX=0.5;entryY=0;entryDx=0;entryDy=0;" parent="1c1d494c118603dd-2" source="s-cvQ4wJ5pqI2j_j3qfa-3" target="s-cvQ4wJ5pqI2j_j3qfa-4" edge="1">
          <mxGeometry relative="1" as="geometry" />
        </mxCell>
        <mxCell id="s-cvQ4wJ5pqI2j_j3qfa-3" value="Review Test Request&lt;span style=&quot;color: rgb(55, 65, 81); font-family: Söhne, ui-sans-serif, system-ui, -apple-system, &amp;quot;Segoe UI&amp;quot;, Roboto, Ubuntu, Cantarell, &amp;quot;Noto Sans&amp;quot;, sans-serif, &amp;quot;Helvetica Neue&amp;quot;, Arial, &amp;quot;Apple Color Emoji&amp;quot;, &amp;quot;Segoe UI Emoji&amp;quot;, &amp;quot;Segoe UI Symbol&amp;quot;, &amp;quot;Noto Color Emoji&amp;quot;; font-size: 16px; text-align: left;&quot;&gt; &lt;/span&gt;" style="rounded=1;whiteSpace=wrap;html=1;shadow=0;comic=0;labelBackgroundColor=none;strokeWidth=1;fontFamily=Verdana;fontSize=12;align=center;arcSize=50;" parent="1c1d494c118603dd-2" vertex="1">
          <mxGeometry x="190" y="720" width="120" height="40" as="geometry" />
        </mxCell>
        <mxCell id="s-cvQ4wJ5pqI2j_j3qfa-7" value="" style="edgeStyle=orthogonalEdgeStyle;rounded=0;orthogonalLoop=1;jettySize=auto;html=1;" parent="1c1d494c118603dd-2" source="s-cvQ4wJ5pqI2j_j3qfa-4" target="s-cvQ4wJ5pqI2j_j3qfa-6" edge="1">
          <mxGeometry relative="1" as="geometry" />
        </mxCell>
        <mxCell id="s-cvQ4wJ5pqI2j_j3qfa-4" value="Perform Test&amp;nbsp;" style="rounded=1;whiteSpace=wrap;html=1;shadow=0;comic=0;labelBackgroundColor=none;strokeWidth=1;fontFamily=Verdana;fontSize=12;align=center;arcSize=50;" parent="1c1d494c118603dd-2" vertex="1">
          <mxGeometry x="190" y="795" width="120" height="40" as="geometry" />
        </mxCell>
        <mxCell id="s-cvQ4wJ5pqI2j_j3qfa-68" value="" style="edgeStyle=orthogonalEdgeStyle;rounded=0;orthogonalLoop=1;jettySize=auto;html=1;" parent="1c1d494c118603dd-2" source="s-cvQ4wJ5pqI2j_j3qfa-6" target="s-cvQ4wJ5pqI2j_j3qfa-8" edge="1">
          <mxGeometry relative="1" as="geometry" />
        </mxCell>
        <mxCell id="s-cvQ4wJ5pqI2j_j3qfa-6" value="Record Test Results" style="rounded=1;whiteSpace=wrap;html=1;shadow=0;comic=0;labelBackgroundColor=none;strokeWidth=1;fontFamily=Verdana;fontSize=12;align=center;arcSize=50;" parent="1c1d494c118603dd-2" vertex="1">
          <mxGeometry x="190" y="885" width="120" height="40" as="geometry" />
        </mxCell>
        <mxCell id="s-cvQ4wJ5pqI2j_j3qfa-8" value="Send Test result" style="rounded=1;whiteSpace=wrap;html=1;shadow=0;comic=0;labelBackgroundColor=none;strokeWidth=1;fontFamily=Verdana;fontSize=12;align=center;arcSize=50;" parent="1c1d494c118603dd-2" vertex="1">
          <mxGeometry x="190" y="975" width="120" height="40" as="geometry" />
        </mxCell>
        <mxCell id="1c1d494c118603dd-4" value="HealthGardian Lab system" style="swimlane;html=1;startSize=20;swimlaneLine=1;" parent="1c1d494c118603dd-2" vertex="1">
          <mxGeometry x="415" width="420" height="1510" as="geometry" />
        </mxCell>
        <mxCell id="s-cvQ4wJ5pqI2j_j3qfa-58" value="Test result" style="rounded=0;whiteSpace=wrap;html=1;shadow=0;comic=0;labelBackgroundColor=none;strokeWidth=1;fontFamily=Verdana;fontSize=12;align=center;arcSize=50;" parent="1c1d494c118603dd-4" vertex="1">
          <mxGeometry x="165" y="1070" width="90" height="60" as="geometry" />
        </mxCell>
        <mxCell id="KkD2YMjLOw5L-Kz9I1kW-59" value="Request" style="rounded=0;whiteSpace=wrap;html=1;shadow=0;comic=0;labelBackgroundColor=none;strokeWidth=1;fontFamily=Verdana;fontSize=12;align=center;arcSize=50;" parent="1c1d494c118603dd-4" vertex="1">
          <mxGeometry x="185" y="565" width="100" height="60" as="geometry" />
        </mxCell>
        <mxCell id="s-cvQ4wJ5pqI2j_j3qfa-63" value="" style="endArrow=classic;html=1;rounded=0;entryX=1;entryY=0.25;entryDx=0;entryDy=0;exitX=0;exitY=0.5;exitDx=0;exitDy=0;" parent="1c1d494c118603dd-2" source="KkD2YMjLOw5L-Kz9I1kW-59" target="KkD2YMjLOw5L-Kz9I1kW-171" edge="1">
          <mxGeometry width="50" height="50" relative="1" as="geometry">
            <mxPoint x="354.9999999999998" y="645" as="sourcePoint" />
            <mxPoint x="460" y="705" as="targetPoint" />
          </mxGeometry>
        </mxCell>
        <mxCell id="s-cvQ4wJ5pqI2j_j3qfa-64" value="" style="endArrow=classic;html=1;rounded=0;exitX=1;exitY=1;exitDx=0;exitDy=0;entryX=0;entryY=0.25;entryDx=0;entryDy=0;" parent="1c1d494c118603dd-2" source="s-cvQ4wJ5pqI2j_j3qfa-8" target="s-cvQ4wJ5pqI2j_j3qfa-58" edge="1">
          <mxGeometry width="50" height="50" relative="1" as="geometry">
            <mxPoint x="330" y="660" as="sourcePoint" />
            <mxPoint x="380" y="610" as="targetPoint" />
          </mxGeometry>
        </mxCell>
        <mxCell id="KkD2YMjLOw5L-Kz9I1kW-173" value="" style="edgeStyle=orthogonalEdgeStyle;rounded=0;orthogonalLoop=1;jettySize=auto;html=1;" parent="1c1d494c118603dd-2" source="KkD2YMjLOw5L-Kz9I1kW-171" target="s-cvQ4wJ5pqI2j_j3qfa-3" edge="1">
          <mxGeometry relative="1" as="geometry" />
        </mxCell>
        <mxCell id="KkD2YMjLOw5L-Kz9I1kW-171" value="Receive Test Request&lt;span style=&quot;color: rgb(55, 65, 81); font-family: Söhne, ui-sans-serif, system-ui, -apple-system, &amp;quot;Segoe UI&amp;quot;, Roboto, Ubuntu, Cantarell, &amp;quot;Noto Sans&amp;quot;, sans-serif, &amp;quot;Helvetica Neue&amp;quot;, Arial, &amp;quot;Apple Color Emoji&amp;quot;, &amp;quot;Segoe UI Emoji&amp;quot;, &amp;quot;Segoe UI Symbol&amp;quot;, &amp;quot;Noto Color Emoji&amp;quot;; font-size: 16px; text-align: left;&quot;&gt; &lt;/span&gt;" style="rounded=1;whiteSpace=wrap;html=1;shadow=0;comic=0;labelBackgroundColor=none;strokeWidth=1;fontFamily=Verdana;fontSize=12;align=center;arcSize=50;" parent="1c1d494c118603dd-2" vertex="1">
          <mxGeometry x="190" y="640" width="120" height="40" as="geometry" />
        </mxCell>
        <mxCell id="KkD2YMjLOw5L-Kz9I1kW-220" value="" style="endArrow=classic;html=1;rounded=0;entryX=1;entryY=0.5;entryDx=0;entryDy=0;exitX=0;exitY=1;exitDx=0;exitDy=0;dashed=1;" parent="1c1d494c118603dd-2" source="KkD2YMjLOw5L-Kz9I1kW-59" target="s-cvQ4wJ5pqI2j_j3qfa-3" edge="1">
          <mxGeometry width="50" height="50" relative="1" as="geometry">
            <mxPoint x="570" y="750" as="sourcePoint" />
            <mxPoint x="620" y="700" as="targetPoint" />
          </mxGeometry>
        </mxCell>
        <mxCell id="KkD2YMjLOw5L-Kz9I1kW-47" value="Doctor" style="swimlane;html=1;startSize=20;swimlaneLine=1;" parent="1c1d494c118603dd-1" vertex="1">
          <mxGeometry x="835" y="20" width="525" height="1515" as="geometry" />
        </mxCell>
        <mxCell id="KkD2YMjLOw5L-Kz9I1kW-48" value="" style="edgeStyle=orthogonalEdgeStyle;rounded=0;orthogonalLoop=1;jettySize=auto;html=1;" parent="KkD2YMjLOw5L-Kz9I1kW-47" source="KkD2YMjLOw5L-Kz9I1kW-49" target="KkD2YMjLOw5L-Kz9I1kW-58" edge="1">
          <mxGeometry relative="1" as="geometry" />
        </mxCell>
        <mxCell id="KkD2YMjLOw5L-Kz9I1kW-49" value="" style="ellipse;whiteSpace=wrap;html=1;rounded=0;shadow=0;comic=0;labelBackgroundColor=none;strokeWidth=1;fillColor=#000000;fontFamily=Verdana;fontSize=12;align=center;" parent="KkD2YMjLOw5L-Kz9I1kW-47" vertex="1">
          <mxGeometry x="240" y="25" width="40" height="40" as="geometry" />
        </mxCell>
        <mxCell id="KkD2YMjLOw5L-Kz9I1kW-159" style="edgeStyle=orthogonalEdgeStyle;rounded=0;orthogonalLoop=1;jettySize=auto;html=1;entryX=0.5;entryY=0;entryDx=0;entryDy=0;" parent="KkD2YMjLOw5L-Kz9I1kW-47" source="KkD2YMjLOw5L-Kz9I1kW-50" target="KkD2YMjLOw5L-Kz9I1kW-124" edge="1">
          <mxGeometry relative="1" as="geometry">
            <Array as="points">
              <mxPoint x="285" y="317" />
              <mxPoint x="263" y="317" />
            </Array>
          </mxGeometry>
        </mxCell>
        <mxCell id="KkD2YMjLOw5L-Kz9I1kW-160" style="edgeStyle=orthogonalEdgeStyle;rounded=0;orthogonalLoop=1;jettySize=auto;html=1;" parent="KkD2YMjLOw5L-Kz9I1kW-47" source="KkD2YMjLOw5L-Kz9I1kW-50" target="KkD2YMjLOw5L-Kz9I1kW-65" edge="1">
          <mxGeometry relative="1" as="geometry" />
        </mxCell>
        <mxCell id="KkD2YMjLOw5L-Kz9I1kW-162" style="edgeStyle=orthogonalEdgeStyle;rounded=0;orthogonalLoop=1;jettySize=auto;html=1;entryX=0.75;entryY=0;entryDx=0;entryDy=0;" parent="KkD2YMjLOw5L-Kz9I1kW-47" source="KkD2YMjLOw5L-Kz9I1kW-50" target="KkD2YMjLOw5L-Kz9I1kW-155" edge="1">
          <mxGeometry relative="1" as="geometry">
            <mxPoint x="415" y="335" as="targetPoint" />
            <Array as="points">
              <mxPoint x="421" y="265" />
            </Array>
          </mxGeometry>
        </mxCell>
        <mxCell id="KkD2YMjLOw5L-Kz9I1kW-50" value="Order test" style="rounded=1;whiteSpace=wrap;html=1;shadow=0;comic=0;labelBackgroundColor=none;strokeWidth=1;fontFamily=Verdana;fontSize=12;align=center;arcSize=50;" parent="KkD2YMjLOw5L-Kz9I1kW-47" vertex="1">
          <mxGeometry x="250" y="250" width="100" height="30" as="geometry" />
        </mxCell>
        <mxCell id="KkD2YMjLOw5L-Kz9I1kW-51" style="edgeStyle=none;rounded=0;html=1;labelBackgroundColor=none;startArrow=none;startFill=0;startSize=5;endArrow=classicThin;endFill=1;endSize=5;jettySize=auto;orthogonalLoop=1;strokeWidth=1;fontFamily=Verdana;fontSize=12;exitX=0.5;exitY=1;exitDx=0;exitDy=0;" parent="KkD2YMjLOw5L-Kz9I1kW-47" source="KkD2YMjLOw5L-Kz9I1kW-53" target="KkD2YMjLOw5L-Kz9I1kW-52" edge="1">
          <mxGeometry relative="1" as="geometry">
            <mxPoint x="170" y="1270" as="sourcePoint" />
          </mxGeometry>
        </mxCell>
        <mxCell id="KkD2YMjLOw5L-Kz9I1kW-52" value="" style="shape=mxgraph.bpmn.shape;html=1;verticalLabelPosition=bottom;labelBackgroundColor=#ffffff;verticalAlign=top;perimeter=ellipsePerimeter;outline=end;symbol=terminate;rounded=0;shadow=0;comic=0;strokeWidth=1;fontFamily=Verdana;fontSize=12;align=center;" parent="KkD2YMjLOw5L-Kz9I1kW-47" vertex="1">
          <mxGeometry x="200" y="1360" width="40" height="40" as="geometry" />
        </mxCell>
        <mxCell id="KkD2YMjLOw5L-Kz9I1kW-53" value="review test results" style="rounded=1;whiteSpace=wrap;html=1;shadow=0;comic=0;labelBackgroundColor=none;strokeWidth=1;fontFamily=Verdana;fontSize=12;align=center;arcSize=50;" parent="KkD2YMjLOw5L-Kz9I1kW-47" vertex="1">
          <mxGeometry x="160" y="1260" width="120" height="50" as="geometry" />
        </mxCell>
        <mxCell id="KkD2YMjLOw5L-Kz9I1kW-54" style="edgeStyle=orthogonalEdgeStyle;rounded=0;orthogonalLoop=1;jettySize=auto;html=1;exitX=1;exitY=0.5;exitDx=0;exitDy=0;" parent="KkD2YMjLOw5L-Kz9I1kW-47" source="KkD2YMjLOw5L-Kz9I1kW-56" target="KkD2YMjLOw5L-Kz9I1kW-50" edge="1">
          <mxGeometry relative="1" as="geometry" />
        </mxCell>
        <mxCell id="KkD2YMjLOw5L-Kz9I1kW-55" style="edgeStyle=orthogonalEdgeStyle;rounded=0;orthogonalLoop=1;jettySize=auto;html=1;entryX=0;entryY=0.5;entryDx=0;entryDy=0;" parent="KkD2YMjLOw5L-Kz9I1kW-47" source="KkD2YMjLOw5L-Kz9I1kW-56" target="KkD2YMjLOw5L-Kz9I1kW-58" edge="1">
          <mxGeometry relative="1" as="geometry">
            <Array as="points">
              <mxPoint x="190" y="190" />
              <mxPoint x="190" y="135" />
            </Array>
          </mxGeometry>
        </mxCell>
        <mxCell id="KkD2YMjLOw5L-Kz9I1kW-56" value="" style="rhombus;whiteSpace=wrap;html=1;" parent="KkD2YMjLOw5L-Kz9I1kW-47" vertex="1">
          <mxGeometry x="240" y="170" width="40" height="40" as="geometry" />
        </mxCell>
        <mxCell id="KkD2YMjLOw5L-Kz9I1kW-57" value="" style="edgeStyle=orthogonalEdgeStyle;rounded=0;orthogonalLoop=1;jettySize=auto;html=1;" parent="KkD2YMjLOw5L-Kz9I1kW-47" source="KkD2YMjLOw5L-Kz9I1kW-58" target="KkD2YMjLOw5L-Kz9I1kW-56" edge="1">
          <mxGeometry relative="1" as="geometry" />
        </mxCell>
        <mxCell id="KkD2YMjLOw5L-Kz9I1kW-58" value="Review test" style="rounded=1;whiteSpace=wrap;html=1;shadow=0;comic=0;labelBackgroundColor=none;strokeWidth=1;fontFamily=Verdana;fontSize=12;align=center;arcSize=50;" parent="KkD2YMjLOw5L-Kz9I1kW-47" vertex="1">
          <mxGeometry x="210" y="120" width="100" height="30" as="geometry" />
        </mxCell>
        <mxCell id="KkD2YMjLOw5L-Kz9I1kW-61" value="" style="edgeStyle=orthogonalEdgeStyle;rounded=0;orthogonalLoop=1;jettySize=auto;html=1;" parent="KkD2YMjLOw5L-Kz9I1kW-47" source="KkD2YMjLOw5L-Kz9I1kW-62" target="KkD2YMjLOw5L-Kz9I1kW-53" edge="1">
          <mxGeometry relative="1" as="geometry" />
        </mxCell>
        <mxCell id="KkD2YMjLOw5L-Kz9I1kW-62" value="receive test results" style="rounded=1;whiteSpace=wrap;html=1;shadow=0;comic=0;labelBackgroundColor=none;strokeWidth=1;fontFamily=Verdana;fontSize=12;align=center;arcSize=50;" parent="KkD2YMjLOw5L-Kz9I1kW-47" vertex="1">
          <mxGeometry x="160" y="1150" width="120" height="50" as="geometry" />
        </mxCell>
        <mxCell id="KkD2YMjLOw5L-Kz9I1kW-165" value="" style="edgeStyle=orthogonalEdgeStyle;rounded=0;orthogonalLoop=1;jettySize=auto;html=1;" parent="KkD2YMjLOw5L-Kz9I1kW-47" source="KkD2YMjLOw5L-Kz9I1kW-65" target="KkD2YMjLOw5L-Kz9I1kW-164" edge="1">
          <mxGeometry relative="1" as="geometry">
            <Array as="points">
              <mxPoint x="123" y="445" />
              <mxPoint x="123" y="445" />
            </Array>
          </mxGeometry>
        </mxCell>
        <mxCell id="KkD2YMjLOw5L-Kz9I1kW-65" value="diagnostic test" style="rounded=0;whiteSpace=wrap;html=1;fontFamily=Verdana;" parent="KkD2YMjLOw5L-Kz9I1kW-47" vertex="1">
          <mxGeometry x="75" y="345" width="95" height="45" as="geometry" />
        </mxCell>
        <mxCell id="KkD2YMjLOw5L-Kz9I1kW-166" value="" style="edgeStyle=orthogonalEdgeStyle;rounded=0;orthogonalLoop=1;jettySize=auto;html=1;" parent="KkD2YMjLOw5L-Kz9I1kW-47" source="KkD2YMjLOw5L-Kz9I1kW-124" target="KkD2YMjLOw5L-Kz9I1kW-164" edge="1">
          <mxGeometry relative="1" as="geometry" />
        </mxCell>
        <mxCell id="KkD2YMjLOw5L-Kz9I1kW-124" value="laboratory work" style="rounded=0;whiteSpace=wrap;html=1;fontFamily=Verdana;" parent="KkD2YMjLOw5L-Kz9I1kW-47" vertex="1">
          <mxGeometry x="215" y="345" width="95" height="45" as="geometry" />
        </mxCell>
        <mxCell id="KkD2YMjLOw5L-Kz9I1kW-167" value="" style="edgeStyle=orthogonalEdgeStyle;rounded=0;orthogonalLoop=1;jettySize=auto;html=1;" parent="KkD2YMjLOw5L-Kz9I1kW-47" source="KkD2YMjLOw5L-Kz9I1kW-155" target="KkD2YMjLOw5L-Kz9I1kW-164" edge="1">
          <mxGeometry relative="1" as="geometry">
            <Array as="points">
              <mxPoint x="397" y="445" />
              <mxPoint x="397" y="445" />
            </Array>
          </mxGeometry>
        </mxCell>
        <mxCell id="KkD2YMjLOw5L-Kz9I1kW-155" value="diagnostic test" style="rounded=0;whiteSpace=wrap;html=1;fontFamily=Verdana;" parent="KkD2YMjLOw5L-Kz9I1kW-47" vertex="1">
          <mxGeometry x="350" y="345" width="95" height="45" as="geometry" />
        </mxCell>
        <mxCell id="KkD2YMjLOw5L-Kz9I1kW-169" value="" style="edgeStyle=orthogonalEdgeStyle;rounded=0;orthogonalLoop=1;jettySize=auto;html=1;" parent="KkD2YMjLOw5L-Kz9I1kW-47" source="KkD2YMjLOw5L-Kz9I1kW-164" target="KkD2YMjLOw5L-Kz9I1kW-168" edge="1">
          <mxGeometry relative="1" as="geometry" />
        </mxCell>
        <mxCell id="KkD2YMjLOw5L-Kz9I1kW-164" value="" style="whiteSpace=wrap;html=1;rounded=0;shadow=0;comic=0;labelBackgroundColor=none;strokeWidth=1;fillColor=#000000;fontFamily=Verdana;fontSize=12;align=center;rotation=0;" parent="KkD2YMjLOw5L-Kz9I1kW-47" vertex="1">
          <mxGeometry x="55" y="445" width="415" height="10" as="geometry" />
        </mxCell>
        <mxCell id="KkD2YMjLOw5L-Kz9I1kW-168" value="Send request" style="rounded=1;whiteSpace=wrap;html=1;shadow=0;comic=0;labelBackgroundColor=none;strokeWidth=1;fontFamily=Verdana;fontSize=12;align=center;arcSize=50;" parent="KkD2YMjLOw5L-Kz9I1kW-47" vertex="1">
          <mxGeometry x="212.5" y="505" width="100" height="30" as="geometry" />
        </mxCell>
        <mxCell id="KkD2YMjLOw5L-Kz9I1kW-170" value="" style="endArrow=classic;html=1;rounded=0;entryX=1;entryY=0.5;entryDx=0;entryDy=0;exitX=0;exitY=0.5;exitDx=0;exitDy=0;" parent="1c1d494c118603dd-1" source="KkD2YMjLOw5L-Kz9I1kW-168" target="KkD2YMjLOw5L-Kz9I1kW-59" edge="1">
          <mxGeometry width="50" height="50" relative="1" as="geometry">
            <mxPoint x="950" y="605" as="sourcePoint" />
            <mxPoint x="1000" y="555" as="targetPoint" />
          </mxGeometry>
        </mxCell>
        <mxCell id="KkD2YMjLOw5L-Kz9I1kW-174" value="" style="endArrow=classic;html=1;rounded=0;exitX=1;exitY=0.5;exitDx=0;exitDy=0;entryX=0.139;entryY=0.034;entryDx=0;entryDy=0;entryPerimeter=0;" parent="1c1d494c118603dd-1" source="s-cvQ4wJ5pqI2j_j3qfa-58" target="KkD2YMjLOw5L-Kz9I1kW-62" edge="1">
          <mxGeometry width="50" height="50" relative="1" as="geometry">
            <mxPoint x="1000" y="1180" as="sourcePoint" />
            <mxPoint x="1050" y="1130" as="targetPoint" />
          </mxGeometry>
        </mxCell>
        <mxCell id="KkD2YMjLOw5L-Kz9I1kW-221" value="" style="endArrow=classic;html=1;rounded=0;exitX=1;exitY=1;exitDx=0;exitDy=0;entryX=0;entryY=0.25;entryDx=0;entryDy=0;dashed=1;" parent="1c1d494c118603dd-1" source="s-cvQ4wJ5pqI2j_j3qfa-58" target="KkD2YMjLOw5L-Kz9I1kW-53" edge="1">
          <mxGeometry width="50" height="50" relative="1" as="geometry">
            <mxPoint x="710" y="1230" as="sourcePoint" />
            <mxPoint x="760" y="1180" as="targetPoint" />
          </mxGeometry>
        </mxCell>
      </root>
    </mxGraphModel>
  </diagram>
</mxfile>
